<svg width="24" height="24" viewBox="0 0 24 24" fill="none" xmlns="http://www.w3.org/2000/svg">
<path d="M23.1837 7.38132C23.17 6.43507 22.995 5.49632 22.66 4.61132C22.0737 3.10007 20.88 1.90507 19.3687 1.32007C18.495 0.991319 17.5712 0.815068 16.6362 0.795068C15.4337 0.741318 15.0525 0.726318 12 0.726318C8.9475 0.726318 8.55625 0.726318 7.3625 0.795068C6.42875 0.815068 5.505 0.991319 4.63125 1.32007C3.12 1.90507 1.925 3.10007 1.34 4.61132C1.01125 5.48507 0.833746 6.40882 0.816246 7.34257C0.762496 8.54632 0.746246 8.92757 0.746246 11.9801C0.746246 15.0326 0.746246 15.4226 0.816246 16.6176C0.834996 17.5526 1.01125 18.4751 1.34 19.3513C1.92625 20.8613 3.12 22.0563 4.6325 22.6413C5.5025 22.9813 6.42625 23.1738 7.36375 23.2038C8.5675 23.2576 8.94875 23.2738 12.0012 23.2738C15.0537 23.2738 15.445 23.2738 16.6387 23.2038C17.5725 23.1851 18.4962 23.0088 19.3712 22.6801C20.8825 22.0938 22.0762 20.8988 22.6625 19.3888C22.9912 18.5138 23.1675 17.5913 23.1862 16.6551C23.24 15.4526 23.2562 15.0713 23.2562 12.0176C23.2537 8.96507 23.2537 8.57757 23.1837 7.38132ZM11.9925 17.7526C8.8 17.7526 6.21375 15.1663 6.21375 11.9738C6.21375 8.78132 8.8 6.19507 11.9925 6.19507C15.1825 6.19507 17.7712 8.78132 17.7712 11.9738C17.7712 15.1663 15.1825 17.7526 11.9925 17.7526ZM18.0012 7.32882C17.255 7.32882 16.6537 6.72632 16.6537 5.98132C16.6537 5.23632 17.255 4.63382 18.0012 4.63382C18.745 4.63382 19.3475 5.23632 19.3475 5.98132C19.3475 6.72632 18.745 7.32882 18.0012 7.32882Z" fill="#64646A"/>
</svg>
